<?xml version="1.0" encoding="UTF-8" standalone="no"?>
<svg
   xmlns:dc="http://purl.org/dc/elements/1.1/"
   xmlns:cc="http://creativecommons.org/ns#"
   xmlns:rdf="http://www.w3.org/1999/02/22-rdf-syntax-ns#"
   xmlns:svg="http://www.w3.org/2000/svg"
   xmlns="http://www.w3.org/2000/svg"
   xmlns:sodipodi="http://sodipodi.sourceforge.net/DTD/sodipodi-0.dtd"
   xmlns:inkscape="http://www.inkscape.org/namespaces/inkscape"
   width="297mm"
   height="210mm"
   viewBox="0 0 297 210"
   version="1.1"
   id="svg1206"
   inkscape:version="1.0.2-2 (e86c870879, 2021-01-15)"
   sodipodi:docname="navbox.svg">
  <defs
     id="defs1200" />
  <sodipodi:namedview
     id="base"
     pagecolor="#ffffff"
     bordercolor="#666666"
     borderopacity="1.0"
     inkscape:pageopacity="0.0"
     inkscape:pageshadow="2"
     inkscape:zoom="0.35"
     inkscape:cx="400"
     inkscape:cy="560"
     inkscape:document-units="mm"
     inkscape:current-layer="layer1"
     inkscape:document-rotation="0"
     showgrid="false"
     inkscape:window-width="1920"
     inkscape:window-height="1001"
     inkscape:window-x="-9"
     inkscape:window-y="-9"
     inkscape:window-maximized="1" />
  <metadata
     id="metadata1203">
    <rdf:RDF>
      <cc:Work
         rdf:about="">
        <dc:format>image/svg+xml</dc:format>
        <dc:type
           rdf:resource="http://purl.org/dc/dcmitype/StillImage" />
        <dc:title />
      </cc:Work>
    </rdf:RDF>
  </metadata>
  <g
     inkscape:label="Layer 1"
     inkscape:groupmode="layer"
     id="layer1">
    <path
       d="m 15.047531,23.548837 c -2.69954,44.207719 0.520678,88.779413 1.889763,132.976663 0.04764,1.54376 2.381678,1.92446 2.809209,0.37025 0.476251,-1.66924 0.920521,-3.34474 1.333028,-5.03073 0.437619,-1.71943 -2.241744,-2.44319 -2.72465,-0.73211 -0.487838,1.66716 -0.943266,3.34058 -1.366507,5.02237 0.936404,0.12341 1.872808,0.24694 2.809428,0.37022 C 15.71823,112.23202 17.01842,67.921809 15.906029,23.548837 c -0.01331,-0.541771 -0.825875,-0.535499 -0.858498,0 v 0"
       style="fill:#4371b0;fill-opacity:1;fill-rule:nonzero;stroke:none;stroke-width:0.211884"
       id="path44" />
    <path
       d="m 16.745205,19.658115 c 1.344834,56.28149 2.624847,112.562975 3.892633,168.844465 0.05535,2.44321 3.982128,2.4453 3.898427,0 C 22.61216,132.22109 20.702221,75.941708 18.855387,19.658115 c -0.04358,-1.319906 -2.141944,-1.326189 -2.110182,0 v 0"
       style="fill:#4371b0;fill-opacity:1;fill-rule:nonzero;stroke:none;stroke-width:0.211884"
       id="path46" />
    <path
       d="m 22.356543,23.483986 c -3.021688,58.212212 -1.82602,117.215104 4.90029,175.161644 0.279872,2.40766 4.157479,2.48297 3.934483,0 C 25.95643,140.24519 23.34918,82.116629 24.716546,23.483986 c 0.03538,-1.487261 -2.283809,-1.472616 -2.360003,0 v 0"
       style="fill:#4371b0;fill-opacity:1;fill-rule:nonzero;stroke:none;stroke-width:0.211884"
       id="path48" />
    <path
       d="m 31.231448,28.636047 c -0.660608,53.338348 1.223144,106.710173 6.126867,159.841443 0.200479,2.17126 3.708914,2.19217 3.504376,0 -4.965749,-53.171 -7.598109,-106.448708 -7.413745,-159.841443 0.0052,-1.388939 -2.199895,-1.39103 -2.217498,0 v 0"
       style="fill:#4371b0;fill-opacity:1;fill-rule:nonzero;stroke:none;stroke-width:0.211884"
       id="path50" />
    <path
       d="m 26.243169,26.017138 c -3.848206,53.769266 -1.174637,108.396162 7.289692,161.646642 0.384814,2.42229 4.108758,1.37638 3.759137,-1.00824 -7.824541,-53.42203 -10.57945,-106.714359 -8.938653,-160.638402 0.04014,-1.332472 -2.017248,-1.309454 -2.110182,0 v 0"
       style="fill:#4371b0;fill-opacity:1;fill-rule:nonzero;stroke:none;stroke-width:0.211884"
       id="path52" />
    <path
       d="M 11.855004,28.23443 C 11.381326,25.715923 104.08034,16.91998 113.16987,16.256879 c 34.27284,-2.503862 68.63689,-3.614593 103.00202,-3.675263 2.41667,-0.0023 2.42097,-3.6543355 0,-3.6606185 -38.59041,-0.066873 -77.14737,1.6211335 -115.58434,4.9930915 -17.604945,1.543727 -35.171469,3.476539 -52.692493,5.750309 -9.723532,1.263429 -19.453715,2.55825 -29.129385,4.133358 -3.76686,0.612894 -7.276173,0.476931 -9.5164164,3.639702 -0.1910132,0.269846 -0.1407884,0.629629 0,0.903645 0.8016194,1.552101 1.8303134,1.5793 3.4307584,0.88274 0.246389,-0.108797 0.265721,-0.422544 0.16846,-0.627539 -0.102364,-0.213357 -0.204533,-0.428815 -0.306928,-0.642172 -0.190379,-0.401628 -0.757839,-0.100367 -0.686581,0.280287 v 0"
       style="fill:#4371b0;fill-opacity:1;fill-rule:nonzero;stroke:none;stroke-width:0.211884"
       id="path54" />
    <path
       d="m 22.018512,36.488602 c -0.512094,-0.866005 25.842849,-5.007736 27.642896,-5.252473 9.512124,-1.294809 19.037772,-2.505953 28.572651,-3.633419 18.668833,-2.204737 37.385531,-4.018311 56.135051,-5.442823 36.82474,-2.796715 73.73724,-4.060144 110.67183,-4.124996 2.92319,-0.0046 2.92748,-4.419927 0,-4.42621 -50.89158,-0.102561 -101.74476,2.895026 -152.278787,8.760382 -11.22568,1.303183 -22.439773,2.727683 -33.623818,4.344635 -6.197262,0.895284 -12.387654,1.836592 -18.570748,2.819723 -5.192823,0.828353 -12.840511,0.85136 -17.506005,3.116756 -3.990712,1.936993 -4.716784,7.802349 -0.190377,4.670948 0.135837,-0.09205 0.203668,-0.261461 0.111365,-0.414171 -0.145717,-0.238466 -0.292514,-0.476932 -0.439121,-0.717476 -0.200477,-0.326324 -0.721138,-0.03142 -0.524973,0.299124 v 0"
       style="fill:#4371b0;fill-opacity:1;fill-rule:nonzero;stroke:none;stroke-width:0.211884"
       id="path56" />
    <path
       d="M 24.69895,42.780672 C 91.257427,30.619054 158.96373,24.688858 226.67129,24.596819 c 2.57762,-0.0023 2.58192,-3.926284 0,-3.903265 -68.07995,0.608701 -135.652095,7.607807 -202.429276,20.474358 -1.085781,0.209176 -0.623054,1.809393 0.456936,1.61276 v 0"
       style="fill:#4371b0;fill-opacity:1;fill-rule:nonzero;stroke:none;stroke-width:0.211884"
       id="path58" />
    <path
       d="M 16.478646,32.735945 C 100.21132,23.914892 183.2044,19.637199 267.36182,25.458631 c 2.86737,0.198724 2.86308,-4.171009 0,-4.357178 C 184.11998,15.69001 98.619237,17.271401 16.259727,31.160825 c -0.903784,0.15271 -0.705896,1.67134 0.2189,1.57512 v 0"
       style="fill:#4371b0;fill-opacity:1;fill-rule:nonzero;stroke:none;stroke-width:0.211884"
       id="path60" />
    <path
       d="m 23.269339,190.45002 c 28.905529,1.42242 58.344183,-0.62334 87.279761,-1.13792 29.09503,-0.51666 58.18752,-1.12745 87.28104,-1.70898 2.55188,-0.0522 2.55832,-3.93257 0,-3.86979 -29.09439,0.71328 -58.18857,1.40149 -87.28104,2.18174 -28.945667,0.77813 -58.456434,0.0522 -87.279761,2.75695 -1.155108,0.1088 -1.190303,1.71945 0,1.778 v 0"
       style="fill:#4371b0;fill-opacity:1;fill-rule:nonzero;stroke:none;stroke-width:0.211884"
       id="path62" />
    <path
       d="m 24.607519,195.90539 c 84.157631,-0.44135 168.214611,-4.68976 251.905861,-13.38532 2.40162,-0.24898 2.4231,-3.95343 0,-3.69618 -83.68697,8.88802 -167.73557,14.46678 -251.905861,16.07119 -0.666623,0.0115 -0.668984,1.01451 0,1.01034 v 0"
       style="fill:#4371b0;fill-opacity:1;fill-rule:nonzero;stroke:none;stroke-width:0.211884"
       id="path64" />
    <path
       d="m 28.578918,182.17915 c 79.191872,2.7486 158.585072,0.43716 237.525212,-6.19379 2.63986,-0.22173 2.66778,-4.26095 0,-4.0434 -79.03736,6.44687 -158.22431,8.86287 -237.525212,7.97178 -1.500007,-0.0176 -1.492279,2.2152 0,2.26541 v 0"
       style="fill:#4371b0;fill-opacity:1;fill-rule:nonzero;stroke:none;stroke-width:0.211884"
       id="path66" />
    <path
       d="m 35.301792,190.31199 c 20.048865,-2.77998 40.048366,-1.12329 60.138224,0.22582 19.810844,1.33038 39.645944,1.8826 59.502734,1.58556 37.88946,-0.56685 75.63471,-4.26723 112.92986,-10.76013 2.65062,-0.46018 1.52385,-4.38435 -1.11175,-3.93254 -39.65388,6.80037 -79.77113,10.61997 -120.03842,11.08227 -37.03935,0.42461 -75.270709,-6.13309 -111.981463,-0.18418 -1.349123,0.21761 -0.759552,2.16499 0.560815,1.98298 v 0"
       style="fill:#4371b0;fill-opacity:1;fill-rule:nonzero;stroke:none;stroke-width:0.211884"
       id="path68" />
    <path
       d="m 256.31514,18.398867 c -0.43354,22.915472 4.40836,46.692756 6.23695,69.591503 1.85435,23.24178 3.24297,46.51288 4.23667,69.80487 0.0966,2.25911 3.72803,2.26538 3.61212,0 -1.20832,-23.97812 -2.83518,-47.9353 -4.95779,-71.854819 -1.96167,-22.103865 -2.21492,-46.186545 -7.93251,-67.698444 -0.17385,-0.654727 -1.18258,-0.50621 -1.19544,0.15689 v 0"
       style="fill:#4371b0;fill-opacity:1;fill-rule:nonzero;stroke:none;stroke-width:0.211884"
       id="path70" />
    <path
       d="m 260.00452,15.819701 c 3.1571,25.517645 8.01619,50.731995 10.30622,76.381421 2.28789,25.651528 3.09703,51.361618 3.05196,77.103088 -0.004,2.71513 4.29675,2.71723 4.32897,0 0.30692,-26.41918 -1.02163,-52.8405 -3.73875,-79.125838 -2.56907,-24.835729 -5.42353,-50.457967 -12.08547,-74.60551 -0.26828,-0.970587 -1.99386,-0.815787 -1.86293,0.246828 v 0"
       style="fill:#4371b0;fill-opacity:1;fill-rule:nonzero;stroke:none;stroke-width:0.211884"
       id="path72" />
    <path
       d="m 271.00397,11.288897 c -7.85523,1.081452 -3.07769,17.008283 -2.69996,21.917696 1.26198,16.382834 2.63558,32.755216 4.00703,49.129676 1.37143,16.374472 2.74932,32.751041 4.11433,49.127591 1.33925,16.04607 2.78582,31.8474 -1.91014,47.54413 -0.85206,2.84902 3.70225,4.06435 4.55216,1.22369 7.56978,-25.30429 1.24269,-53.7609 -1.1418,-79.47307 -1.32852,-14.328715 -2.65704,-28.657418 -3.98771,-42.988224 -0.63314,-6.825479 -1.3006,-13.646789 -1.98097,-20.470178 -0.45501,-4.589372 -4.6831,-21.838199 -0.41424,-24.770889 0.67177,-0.460185 0.24039,-1.349197 -0.53871,-1.240422 v 0"
       style="fill:#4371b0;fill-opacity:1;fill-rule:nonzero;stroke:none;stroke-width:0.211884"
       id="path74" />
    <path
       d="m 249.37633,19.900762 c 9.51214,56.672666 13.56422,113.788768 15.60102,171.122428 0.0816,2.28003 3.68294,2.29677 3.64859,0 -0.8499,-57.51563 -8.03765,-114.824202 -18.04342,-171.44665 -0.13723,-0.773954 -1.33495,-0.443461 -1.20619,0.324222 v 0"
       style="fill:#4371b0;fill-opacity:1;fill-rule:nonzero;stroke:none;stroke-width:0.211884"
       id="path76" />
    <path
       d="m 257.17577,23.557199 c 2.70426,25.739375 7.17916,51.263302 9.53144,77.067541 2.35656,25.84604 3.47046,51.6921 4.40193,77.61557 0.0923,2.59172 4.18303,2.61262 4.14868,0 -0.3434,-26.58028 -2.33939,-53.22123 -5.18531,-79.652966 -2.69353,-25.028181 -5.37632,-50.723632 -11.34931,-75.235139 -0.20171,-0.822071 -1.63758,-0.669373 -1.54743,0.205006 v 0"
       style="fill:#4371b0;fill-opacity:1;fill-rule:nonzero;stroke:none;stroke-width:0.211884"
       id="path78" />
  </g>
</svg>
